<svg width="16" height="14" viewBox="0 0 16 14" fill="none" xmlns="http://www.w3.org/2000/svg">
<g clip-path="url(#clip0_442_1667)">
<path fill-rule="evenodd" clip-rule="evenodd" d="M0.400071 11.8749H15.6001C15.8211 11.8749 16.0001 12.0567 16.0001 12.2812V13.0937C16.0001 13.3181 15.8211 13.4999 15.6001 13.4999H0.400071C0.179071 13.4999 7.10663e-05 13.3181 7.10663e-05 13.0937V12.2812C7.10663e-05 12.0567 0.179071 11.8749 0.400071 11.8749Z" fill="#B3BDD5"/>
<path d="M2.01382 9.165C2.17082 9.33867 2.39132 9.43719 2.62207 9.43693L5.88557 9.43236C6.14312 9.43201 6.39697 9.37008 6.62657 9.25158L13.9006 5.50265C14.5691 5.1581 15.1683 4.66629 15.5761 4.02213C16.0338 3.299 16.0836 2.7757 15.9028 2.40601C15.7226 2.03607 15.2843 1.76439 14.4466 1.70904C13.7003 1.65978 12.9581 1.85935 12.2896 2.20365L9.82682 3.47293L4.35932 1.38937C4.29358 1.34439 4.21721 1.31807 4.1381 1.31311C4.05898 1.30816 3.98 1.32476 3.90932 1.36119L2.26557 2.20847C1.99882 2.34584 1.93432 2.7074 2.13632 2.93287L6.04182 5.42369L3.46157 6.75365L1.65282 5.82765C1.59051 5.79574 1.52167 5.77916 1.45189 5.77925C1.3821 5.77934 1.31331 5.7961 1.25107 5.82816L0.247821 6.34537C-0.0131789 6.47994 -0.0819289 6.83084 0.108571 7.05834L2.01382 9.165Z" fill="#B3BDD5"/>
</g>
<defs>
<clipPath id="clip0_442_1667">
<rect width="16" height="13" fill="white" transform="translate(0 0.5)"/>
</clipPath>
</defs>
</svg>
