<svg width="92" height="18" viewBox="0 0 92 18" fill="none" xmlns="http://www.w3.org/2000/svg">
<path fill-rule="evenodd" clip-rule="evenodd" d="M54.3095 7.59263H47.6208L43.6977 0L41.8568 0L43.9016 7.59263L37.6804 7.59263L36.6146 5.25885H35.7783L36.3223 8.99921L35.7783 12.7395H36.6146L37.6804 10.4074H43.9L41.8551 18H43.696L47.6191 10.4074L54.3078 10.4074C55.1084 10.4074 55.7594 9.77654 55.7594 9.00081C55.7594 8.2251 55.1118 7.59263 54.3095 7.59263Z" fill="#B6BFD3"/>
<circle cx="26" cy="9" r="2" fill="#B6BFD3"/>
<circle cx="90" cy="9" r="2" fill="#F0F4FB"/>
<circle cx="14" cy="9" r="2" fill="#E6EAF3"/>
<circle cx="78" cy="9" r="2" fill="#E6EAF3"/>
<circle cx="2" cy="9" r="2" fill="#F0F4FB"/>
<circle cx="66" cy="9" r="2" fill="#B6BFD3"/>
</svg>
