<svg width="206" height="206" viewBox="0 0 206 206" fill="none" xmlns="http://www.w3.org/2000/svg">
<path d="M0 57.3733C0 25.6869 25.6869 0 57.3733 0H147.932C179.618 0 205.305 25.6869 205.305 57.3733V148.627C205.305 180.313 179.618 206 147.932 206H57.3733C25.687 206 0 180.313 0 148.627V57.3733Z" fill="#3692FF"/>
<path d="M99.1343 57.3533C101.697 66.2095 94.9209 75.9683 87.1536 78.2311C79.3864 80.4939 68.7749 75.8007 66.2122 66.9445C63.6495 58.0882 69.0293 45.8173 76.7966 43.5545C87.1536 40.5371 96.5715 48.497 99.1343 57.3533Z" fill="#222327"/>
<path d="M103.405 57.3533C100.842 66.2095 107.618 75.9683 115.385 78.2311C123.153 80.4939 133.764 75.8007 136.327 66.9445C138.89 58.0882 133.51 45.8173 125.743 43.5545C115.385 40.5371 105.968 48.497 103.405 57.3533Z" fill="#222327"/>
<path d="M151.5 122.053C151.5 144.579 129.412 152.953 99.2834 152.953C69.1544 152.953 47.5664 144.579 47.5664 122.053C47.5664 95.8506 69.1544 72.6143 99.2834 72.6143C129.412 72.6143 151.5 93.873 151.5 122.053Z" fill="#F3D6DD"/>
<path d="M89.3095 117.606C89.3095 124.984 84.5741 133.077 77.9567 133.077C71.3392 133.077 60.6494 127.066 60.6494 116.045C60.6494 105.693 72.1976 102.011 84.1307 103.901C91.4446 105.06 89.3095 110.228 89.3095 117.606Z" fill="#222327"/>
<path d="M83.7752 116.861C83.7752 117.967 83.4424 118.864 81.7782 118.864C80.1141 118.864 79.7812 117.967 79.7812 116.861C79.7812 115.754 80.4469 114.857 81.7782 114.857C83.1096 114.857 83.7752 115.754 83.7752 116.861Z" fill="white"/>
<path d="M109.439 117.606C109.439 124.984 114.175 133.077 120.792 133.077C127.41 133.077 138.1 127.066 138.1 116.045C138.1 105.693 126.551 102.011 114.618 103.901C107.304 105.06 109.439 110.228 109.439 117.606Z" fill="#222327"/>
<path d="M114.982 116.861C114.982 117.967 115.314 118.864 116.979 118.864C118.643 118.864 118.976 117.967 118.976 116.861C118.976 115.754 118.31 114.857 116.979 114.857C115.647 114.857 114.982 115.754 114.982 116.861Z" fill="white"/>
<path d="M99.1501 125.397C99.7018 125.397 100.193 125.749 100.372 126.271C100.604 126.949 101.076 127.979 101.703 128.81C102.372 129.698 102.963 130.033 103.383 130.034C104.122 130.034 104.805 129.763 105.384 129.379C105.97 128.99 106.381 128.529 106.554 128.277C106.957 127.689 107.761 127.539 108.349 127.942C108.936 128.345 109.086 129.148 108.684 129.735C108.327 130.256 107.68 130.954 106.811 131.531C105.935 132.112 104.762 132.615 103.383 132.615C101.688 132.615 100.425 131.405 99.6401 130.363C99.4649 130.13 99.3031 129.888 99.1501 129.644C98.9971 129.888 98.8353 130.13 98.6602 130.363C97.8749 131.405 96.6113 132.615 94.9148 132.615C93.5367 132.615 92.3654 132.112 91.489 131.531C90.6206 130.954 89.9729 130.256 89.6163 129.735C89.2141 129.148 89.3639 128.345 89.9514 127.942C90.5395 127.539 91.3436 127.689 91.7466 128.277C91.9193 128.529 92.3298 128.99 92.9163 129.379C93.495 129.763 94.1765 130.033 94.9148 130.034C95.3355 130.034 95.9275 129.699 96.5977 128.81C97.224 127.979 97.6957 126.949 97.9281 126.271C98.1069 125.749 98.5984 125.397 99.1501 125.397Z" fill="#222327"/>
<path d="M106.199 125.497C106.199 126.571 101.364 127.938 99.7363 128.368C99.3885 128.459 99.0299 128.459 98.6821 128.368C97.0548 127.938 92.2197 126.571 92.2197 125.497C92.2197 124.206 96.0843 122.826 99.2092 122.826C102.334 122.826 106.199 124.206 106.199 125.497Z" fill="#222327"/>
<path d="M98.3738 91.155C78.9509 91.155 71.813 84.3314 70.6582 80.3403L79.8967 70.298L99.9136 66.8218L127.629 80.3403C125.961 83.5589 117.818 91.155 98.3738 91.155Z" fill="#222327"/>
<path d="M101.063 55.6187C141.2 55.6187 170.624 84.3386 170.625 122.409C170.625 152.842 141.2 164.154 101.063 164.154C60.9258 164.154 32.167 152.842 32.167 122.409C32.1675 87.0103 60.9262 55.6188 101.063 55.6187ZM99.4845 72.9859C69.9606 72.986 48.8061 95.9748 48.8061 121.898C48.8062 144.184 69.9606 152.467 99.4845 152.467C129.008 152.467 150.653 144.184 150.653 121.898C150.653 94.0183 129.009 72.9859 99.4845 72.9859Z" fill="white"/>
</svg>
