<svg width="56" height="40" viewBox="0 0 56 40" fill="none" xmlns="http://www.w3.org/2000/svg">
<path d="M27.9861 0C37.9073 0.000188155 46.759 6.48196 52.5437 12.0654C57.1137 16.4765 57.1137 23.5235 52.5437 27.9346C46.759 33.518 37.9073 39.9998 27.9861 40C18.0647 40 9.21228 33.5181 3.4275 27.9346C-1.1425 23.5235 -1.1425 16.4765 3.4275 12.0654C9.21228 6.48187 18.0647 0 27.9861 0ZM28.03 8.7998C21.8445 8.79992 16.8299 13.8145 16.8298 20C16.8298 26.1855 21.8445 31.2001 28.03 31.2002C34.2157 31.2002 39.2302 26.1856 39.2302 20C39.2302 13.8144 34.2157 8.7998 28.03 8.7998ZM28.03 14.7998C30.9019 14.7998 33.2302 17.1281 33.2302 20C33.2302 22.8719 30.9019 25.2002 28.03 25.2002C25.1582 25.2001 22.8298 22.8718 22.8298 20C22.8299 17.1282 25.1583 14.7999 28.03 14.7998Z" fill="black" fill-opacity="0.3"/>
</svg>
