<svg width="21" height="19" viewBox="0 0 21 19" fill="none" xmlns="http://www.w3.org/2000/svg">
<path d="M13.9846 9.4788L12.8615 8.35575C13.032 7.466 12.798 6.70702 12.1596 6.07882C11.5211 5.45062 10.7551 5.2096 9.8615 5.35575L8.73845 4.2327C8.9705 4.125 9.20927 4.04743 9.45477 4C9.70029 3.95257 9.95253 3.92885 10.2115 3.92885C11.3461 3.92885 12.3092 4.32468 13.1009 5.11635C13.8926 5.90802 14.2884 6.87115 14.2884 8.00575C14.2884 8.26472 14.2663 8.51696 14.2221 8.76248C14.1778 9.00797 14.0987 9.24675 13.9846 9.4788ZM17.1653 12.5904L16.0615 11.5557C16.6948 11.0724 17.2615 10.5349 17.7615 9.94325C18.2615 9.35158 18.6782 8.70575 19.0115 8.00575C18.1782 6.32242 16.974 4.98492 15.399 3.99325C13.824 3.00158 12.0948 2.50575 10.2115 2.50575C9.72817 2.50575 9.25733 2.53908 8.799 2.60575C8.34067 2.67242 7.87817 2.77242 7.4115 2.90575L6.24615 1.7404C6.88203 1.48912 7.53042 1.30386 8.19133 1.18463C8.85221 1.06539 9.5256 1.00577 10.2115 1.00577C12.3602 1.00577 14.3339 1.56411 16.1326 2.68077C17.9313 3.79744 19.3147 5.30833 20.2826 7.21345C20.3493 7.34037 20.3977 7.46825 20.4278 7.5971C20.4579 7.72595 20.473 7.86217 20.473 8.00575C20.473 8.14933 20.4605 8.28555 20.4355 8.4144C20.4105 8.54325 20.3647 8.67113 20.298 8.79805C19.9442 9.55062 19.4999 10.2455 18.9653 10.8826C18.4307 11.5198 17.8307 12.0891 17.1653 12.5904ZM10.2115 15.0057C8.10638 15.0057 6.17691 14.4432 4.42308 13.3182C2.66923 12.1932 1.27499 10.7115 0.240375 8.87305C0.157042 8.74613 0.09615 8.60832 0.0577 8.4596C0.0192333 8.31088 0 8.1596 0 8.00575C0 7.8519 0.0166667 7.70318 0.05 7.5596C0.0833333 7.41602 0.141667 7.27563 0.225 7.13845C0.5968 6.45897 1.01796 5.81185 1.48847 5.1971C1.95899 4.58235 2.50002 4.03139 3.11155 3.54422L0.85385 1.27112C0.715383 1.12241 0.647117 0.945807 0.64905 0.741324C0.650967 0.53684 0.724358 0.362166 0.869225 0.217299C1.01409 0.0724322 1.18973 0 1.39615 0C1.60255 0 1.77818 0.0724322 1.92305 0.217299L18.5 16.7942C18.6384 16.9326 18.7118 17.1041 18.7201 17.3086C18.7285 17.5131 18.6551 17.6929 18.5 17.848C18.3551 17.9929 18.1794 18.0653 17.973 18.0653C17.7666 18.0653 17.591 17.9929 17.4461 17.848L13.9269 14.3595C13.3372 14.5878 12.7311 14.7525 12.1086 14.8538C11.4862 14.9551 10.8538 15.0057 10.2115 15.0057ZM4.16537 4.59802C3.57947 5.05059 3.05287 5.56246 2.58555 6.13362C2.11823 6.70477 1.72688 7.32882 1.4115 8.00575C2.24483 9.68908 3.449 11.0266 5.024 12.0182C6.599 13.0099 8.32817 13.5057 10.2115 13.5057C10.641 13.5057 11.0638 13.4769 11.4798 13.4192C11.8958 13.3615 12.309 13.2724 12.7192 13.1519L11.4538 11.8557C11.2513 11.9442 11.049 12.0041 10.8471 12.0355C10.6452 12.0669 10.4333 12.0826 10.2115 12.0826C9.0769 12.0826 8.11377 11.6868 7.3221 10.8951C6.53043 10.1035 6.1346 9.14035 6.1346 8.00575C6.1346 7.78395 6.15191 7.57209 6.18652 7.37018C6.22114 7.16824 6.27948 6.96599 6.36153 6.76342L4.16537 4.59802Z" fill="#4B5563"/>
</svg>
